<svg xmlns="http://www.w3.org/2000/svg" width="28" height="28" viewBox="0 0 28 28" fill="none"><rect x="0.5" y="0.299805" width="27" height="27" rx="13.5" fill="#FFD734"></rect><path d="M9.01917 15.6486H11.3609C11.5922 16.2011 11.7328 16.7516 12.0295 17.2007C12.585 18.044 13.6782 18.3993 14.6065 18.1436C15.6793 17.8469 16.4465 17.0074 16.4807 15.9317C16.5295 14.3757 16.5441 12.8149 16.4836 11.2599C16.4299 9.87385 15.2596 8.87625 13.8959 8.92701C12.5684 8.97679 11.5288 10.0701 11.5122 11.4474C11.5024 12.2624 11.5102 13.0785 11.5102 13.8945C11.5102 14.0126 11.5102 14.1317 11.5102 14.2713H9.08164C9.05919 14.244 9.03089 14.2244 9.03186 14.2069C9.06895 12.7544 8.81907 11.2863 9.27297 9.85726C10.3506 6.46131 14.6983 5.29972 17.3377 7.70587C18.4408 8.71128 18.9981 9.96463 19.001 11.4581C19.004 12.895 19.004 14.3308 19.001 15.7677C18.9962 18.4472 16.7891 20.6688 14.098 20.705C11.3648 20.742 9.10214 18.6063 9.01917 15.9112C9.01722 15.8399 9.01917 15.7677 9.01917 15.6486Z" fill="white"></path><path d="M15.3815 11.469C15.3844 12.2323 14.7597 12.8657 13.9935 12.8745C13.2234 12.8833 12.5939 12.2674 12.5841 11.4953C12.5734 10.696 13.1854 10.0771 13.9848 10.0762C14.7539 10.0762 15.3776 10.6979 15.3815 11.469Z" fill="white"></path></svg>