<svg xmlns="http://www.w3.org/2000/svg" width="190" height="21" viewBox="0 0 190 21" fill="none"><g clip-path="url(#clip0_97_95)"><path d="M23.376 2.96259C24.6904 2.96259 25.9693 2.95028 27.2468 2.979C27.3959 2.98174 27.5792 3.18144 27.6791 3.33326C29.7704 6.55032 31.8522 9.77421 33.9381 12.9954C34.0338 13.1445 34.1392 13.2867 34.3224 13.5493V3.00089H38.4094V19.8658C37.0936 19.8658 35.7832 19.8781 34.4743 19.848C34.3334 19.8453 34.1665 19.6128 34.0639 19.4541C31.9931 16.2644 29.9291 13.0692 27.8637 9.87543C27.7639 9.72086 27.6572 9.57177 27.4643 9.29001V19.8412H23.3773V2.96259H23.376Z" fill="#333333"></path><path d="M87.697 8.38996C86.0037 8.38996 84.4841 8.39406 82.9659 8.38038C82.8414 8.38038 82.6526 8.28327 82.6048 8.17932C81.4777 5.772 77.0775 6.04282 75.7562 8.6088C74.8029 10.4608 74.7782 12.3675 75.7822 14.1962C76.8299 16.1043 79.5559 16.8361 81.4763 15.8061C82.364 15.3301 82.9029 14.582 83.182 13.5452H78.4576V10.4663H87.5562C88.5382 15.9744 84.2201 19.7577 80.1687 19.9779C76.1241 20.1981 72.6157 18.0575 71.4203 14.4876C69.6216 9.12173 72.4708 4.27289 77.2827 3.03094C80.9333 2.08853 84.7618 3.47 86.6739 6.42307C87.0487 7.00028 87.3168 7.64724 87.6984 8.38859L87.697 8.38996Z" fill="#333333"></path><path d="M144.362 8.38846C142.669 8.38846 141.119 8.39256 139.569 8.37889C139.465 8.37889 139.319 8.26536 139.267 8.16551C138.04 5.83342 134.436 6.29984 133.055 7.75791C131.275 9.63589 131.317 13.3508 133.194 15.1317C134.399 16.2752 136.653 16.5911 138.129 15.8224C139.011 15.3628 139.684 14.4574 139.802 13.5437H135.154V10.4593H144.21C144.943 14.7063 142.769 18.1682 138.855 19.5606C134.131 21.2416 128.935 18.3583 127.799 13.5245C126.681 8.75777 129.344 4.21122 133.946 3.03218C137.618 2.0925 141.458 3.47397 143.372 6.4544C143.742 7.03161 144.004 7.67994 144.362 8.38573V8.38846Z" fill="#333333"></path><path d="M106.348 19.9177V3.06507C106.409 3.03908 106.454 3.00352 106.499 3.00352C108.889 3.02677 111.284 2.95975 113.667 3.09926C117.311 3.31401 120.402 5.86768 121.254 9.19005C122.571 14.3179 119.228 19.2338 113.943 19.7289C111.44 19.9628 108.905 19.8657 106.348 19.9177ZM110.469 16.7362C111.752 16.7225 113.013 16.862 114.236 16.4312C115.331 16.0441 116.177 15.3424 116.677 14.3001C117.579 12.4249 117.625 10.4895 116.699 8.63199C115.485 6.19595 113.207 5.91418 110.469 6.21647V16.7348V16.7362Z" fill="#333333"></path><path d="M162.808 19.8672C163.443 18.0384 164.054 16.2712 164.669 14.5041C165.954 10.8042 167.244 7.10565 168.518 3.40166C168.628 3.08023 168.757 2.94619 169.119 2.95303C170.504 2.97765 171.888 2.9667 173.271 2.95987C173.532 2.9585 173.7 2.98859 173.803 3.28814C175.673 8.73196 177.556 14.1717 179.437 19.6128C179.459 19.6757 179.467 19.7413 179.497 19.8685C178.091 19.8685 176.715 19.8754 175.339 19.8549C175.231 19.8535 175.073 19.6743 175.027 19.5457C174.768 18.8249 174.529 18.0959 174.302 17.3641C174.224 17.1152 174.104 17.0181 173.833 17.0194C172.056 17.0317 170.279 17.0317 168.503 17.0194C168.21 17.0167 168.081 17.1193 167.998 17.3928C167.78 18.1096 167.548 18.8235 167.287 19.5252C167.233 19.6688 167.029 19.8521 166.891 19.8549C165.559 19.8795 164.227 19.8699 162.806 19.8699L162.808 19.8672ZM171.205 8.0508C171.171 8.05353 171.137 8.05627 171.103 8.06037C170.46 9.99717 169.818 11.9353 169.169 13.8926H173.143C172.488 11.9176 171.847 9.98486 171.205 8.05216V8.0508Z" fill="#333333"></path><path d="M71.464 19.8425H67.098C66.8436 19.0724 66.5632 18.2928 66.3307 17.4981C66.2199 17.1178 66.0312 17.0098 65.6427 17.0152C63.9699 17.0371 62.2957 17.0358 60.6229 17.0152C60.2413 17.0111 60.0457 17.0973 59.939 17.494C59.753 18.1833 59.5081 18.8563 59.2592 19.5265C59.2086 19.6647 59.0321 19.8507 58.9118 19.852C57.5645 19.8753 56.2172 19.8671 54.8057 19.8671C54.8727 19.6455 54.9178 19.4691 54.978 19.2967C56.815 14.0061 58.6546 8.71819 60.482 3.42483C60.5983 3.08835 60.7364 2.94473 61.1194 2.95157C62.5022 2.97893 63.8851 2.96935 65.2693 2.95704C65.547 2.95431 65.6919 3.02543 65.7877 3.30583C67.652 8.7305 69.5286 14.1511 71.3997 19.573C71.4271 19.651 71.438 19.733 71.4627 19.8438L71.464 19.8425ZM65.1216 13.8898C64.4623 11.9093 63.8194 9.9793 63.1301 7.90709C62.4407 9.98751 61.8006 11.9147 61.1454 13.8898H65.1216Z" fill="#333333"></path><path d="M40.372 3.01728H44.4453C44.4453 3.23476 44.4453 3.43309 44.4453 3.63279C44.4453 6.66929 44.4384 9.7058 44.4521 12.7437C44.4548 13.2511 44.4877 13.7722 44.6053 14.2633C44.8789 15.4109 45.7296 16.103 46.9059 16.1796C47.3122 16.2056 47.7321 16.2151 48.1315 16.1454C49.4993 15.9074 50.3268 14.8911 50.3391 13.3619C50.3665 10.138 50.3514 6.91276 50.3541 3.68887C50.3541 3.48643 50.3541 3.28263 50.3541 3.03643H54.4288C54.4425 3.17321 54.4671 3.30315 54.4671 3.43446C54.4685 6.64194 54.463 9.84941 54.4698 13.0569C54.4739 15.2864 53.7052 17.1699 51.9408 18.5705C49.3652 20.6126 45.0676 20.51 42.555 18.3927C40.9752 17.0604 40.3542 15.3028 40.3351 13.3127C40.3022 9.98619 40.3227 6.65972 40.3227 3.33187C40.3227 3.23476 40.3515 3.13628 40.3706 3.01865L40.372 3.01728Z" fill="#333333"></path><path d="M98.8268 16.739V19.8275H88.6367V3.00229H98.8049V6.0511H92.7675V9.70995H98.0895V12.7971H92.7798V16.7377H98.8254L98.8268 16.739Z" fill="#333333"></path><path d="M158.963 19.8438H154.838V6.13846H150.27V3.02262H163.528V6.12341H158.963V19.8451V19.8438Z" fill="#333333"></path><path d="M179.94 19.837V3.02406H184.007V16.7376H189.127V19.837H179.94Z" fill="#333333"></path><path d="M126.572 19.8438H122.52V3.03228H126.572V19.8438Z" fill="#333333"></path><path d="M149.402 19.8425H145.345V3.03228H149.402V19.8438V19.8425Z" fill="#333333"></path><path d="M0.0323383 13.7146H3.31368C3.63785 14.4888 3.83481 15.2602 4.25062 15.8894C5.02889 17.0712 6.56082 17.5691 7.8616 17.2107C9.3648 16.7949 10.4399 15.6186 10.4878 14.1113C10.5562 11.931 10.5767 9.7439 10.4919 7.565C10.4166 5.62274 8.77665 4.22485 6.86584 4.29598C5.00564 4.36573 3.54894 5.89766 3.52569 7.82762C3.51201 8.96973 3.52295 10.1132 3.52295 11.2567C3.52295 11.4222 3.52295 11.5891 3.52295 11.7846H0.119877C0.0884179 11.7464 0.0487518 11.719 0.0501196 11.6944C0.102096 9.6591 -0.24806 7.60193 0.387965 5.59948C1.89801 0.840926 7.99017 -0.786749 11.6887 2.58486C13.2343 3.99369 14.0153 5.74994 14.0194 7.84267C14.0235 9.85606 14.0235 11.8681 14.0194 13.8815C14.0126 17.6361 10.92 20.7492 7.14897 20.7998C3.31915 20.8518 0.148601 17.859 0.0323383 14.0825C0.0296027 13.9827 0.0323383 13.8815 0.0323383 13.7146Z" fill="#FFD734"></path><path d="M8.94764 7.85796C8.95174 8.92758 8.07635 9.81528 7.00263 9.82759C5.92344 9.8399 5.04122 8.97682 5.02754 7.89489C5.01249 6.77467 5.8701 5.90749 6.99032 5.90612C8.06815 5.90612 8.94217 6.7774 8.94764 7.85796Z" fill="#FFD734"></path></g><defs><clipPath id="clip0_97_95"><rect width="189.126" height="19.9999" fill="white" transform="translate(0 0.799858)"></rect></clipPath></defs></svg>