<svg width="106" height="23" viewBox="0 0 106 23" fill="none" xmlns="http://www.w3.org/2000/svg">
<path d="M72.7678 14.8566V12.5045H76.305L74.6351 13.8871V5.8252H77.3823V14.8566H72.7678ZM72.7678 14.8566C72.7079 14.8566 72.6541 14.8327 72.6062 14.7848C72.5583 14.725 72.5224 14.6472 72.4985 14.5514C72.4745 14.4437 72.4566 14.318 72.4446 14.1743C72.4207 14.0187 72.4087 13.8512 72.4087 13.6716C72.4087 13.4322 72.4207 13.2287 72.4446 13.0611C72.4685 12.8816 72.5104 12.7439 72.5703 12.6482C72.6182 12.5524 72.684 12.5045 72.7678 12.5045V14.8566ZM74.6351 4.15537V1.96484H77.4002V4.15537H74.6351Z" fill="black"/>
<path d="M70.9041 14.8557V12.5035H72.7714V14.8557H70.9041ZM65.8587 19.4881C65.4038 19.4881 64.931 19.4522 64.4402 19.3804C63.9495 19.3205 63.4348 19.2307 62.8961 19.111L63.3091 16.9205C63.8956 16.9923 64.3924 17.0462 64.7993 17.0821C65.2183 17.118 65.5714 17.136 65.8587 17.136C66.6727 17.136 67.2592 16.9923 67.6183 16.705C67.9774 16.4178 68.157 15.9809 68.157 15.3943V7.78133L68.7136 8.17634H66.7205C66.3136 8.17634 65.9724 8.23021 65.6971 8.33794C65.4218 8.4337 65.2123 8.64318 65.0687 8.96637C64.937 9.27759 64.8712 9.76238 64.8712 10.4207C64.8712 11.0312 64.931 11.4861 65.0507 11.7853C65.1704 12.0846 65.3679 12.2821 65.6432 12.3778C65.9185 12.4616 66.2777 12.5035 66.7205 12.5035H68.157V14.8557H66.7205C65.7151 14.8557 64.8652 14.6941 64.1709 14.3709C63.4886 14.0477 62.9739 13.5569 62.6268 12.8985C62.2916 12.2402 62.124 11.4143 62.124 10.4207C62.124 9.41525 62.2916 8.57136 62.6268 7.88906C62.9739 7.20676 63.4886 6.69205 64.1709 6.34492C64.8652 5.99778 65.7151 5.82422 66.7205 5.82422H70.9041V15.3943C70.9041 16.2322 70.6946 16.9564 70.2757 17.5669C69.8567 18.1893 69.2702 18.6622 68.5161 18.9853C67.7619 19.3205 66.8762 19.4881 65.8587 19.4881ZM72.7714 14.8557V12.5035C72.8433 12.5035 72.8971 12.5335 72.933 12.5933C72.9809 12.6412 73.0168 12.719 73.0408 12.8267C73.0767 12.9225 73.1006 13.0422 73.1126 13.1858C73.1246 13.3295 73.1305 13.4911 73.1305 13.6706C73.1305 13.8502 73.1246 14.0178 73.1126 14.1734C73.1006 14.317 73.0767 14.4427 73.0408 14.5504C73.0168 14.6462 72.9809 14.724 72.933 14.7838C72.8971 14.8317 72.8433 14.8557 72.7714 14.8557Z" fill="black"/>
<path d="M57.0942 14.8568V2.23438H59.8234V14.8568H57.0942Z" fill="black"/>
<path d="M51.2575 17.9799V16.2741H53.0889V17.9799H51.2575ZM50.1084 20.6911C49.1029 20.6911 48.2171 20.5235 47.451 20.1883C46.6969 19.8651 46.1104 19.3983 45.6914 18.7878C45.2725 18.1774 45.063 17.4472 45.063 16.5973C45.063 15.7474 45.2725 15.0173 45.6914 14.4068C46.1104 13.7963 46.6969 13.3295 47.451 13.0063C48.2171 12.6711 49.1029 12.5035 50.1084 12.5035H51.6884V10.331C51.6884 9.6367 51.467 9.11001 51.0241 8.75091C50.5932 8.37984 49.8989 8.1943 48.9413 8.1943C48.654 8.1943 48.277 8.21824 47.8101 8.26612C47.3433 8.30203 46.8166 8.36188 46.2301 8.44567L45.9608 6.30901C46.5233 6.16537 47.074 6.05165 47.6126 5.96786C48.1632 5.8721 48.7019 5.82422 49.2286 5.82422C50.246 5.82422 51.1438 6.00975 51.9219 6.38083C52.6999 6.73993 53.3104 7.25465 53.7533 7.92497C54.2081 8.58333 54.4356 9.38532 54.4356 10.331V14.8557H50.1084C49.3064 14.8557 48.7199 14.9993 48.3488 15.2866C47.9897 15.5739 47.8101 16.0108 47.8101 16.5973C47.8101 17.1838 47.9897 17.6208 48.3488 17.908C48.7199 18.1953 49.3064 18.339 50.1084 18.339C50.2401 18.339 50.3837 18.333 50.5393 18.321C50.7069 18.309 50.9044 18.2911 51.1318 18.2671L51.2396 20.5834C51.072 20.6193 50.8864 20.6432 50.683 20.6552C50.4914 20.6791 50.2999 20.6911 50.1084 20.6911Z" fill="black"/>
<path d="M32.1929 14.8557V12.5035H38.6567L36.8612 14.0477V11.3365C36.8612 10.5105 36.7774 9.87011 36.6098 9.41525C36.4423 8.96038 36.1669 8.64318 35.7839 8.46363C35.4009 8.2721 34.8742 8.17634 34.2038 8.17634H32.7495V5.82422H34.2038C35.3649 5.82422 36.3465 6.01574 37.1485 6.39878C37.9505 6.78183 38.561 7.38033 38.9799 8.1943C39.3989 8.9963 39.6083 10.0437 39.6083 11.3365V14.8557H32.1929Z" fill="black"/>
<path d="M20.9543 14.8557V12.5035H28.6032L27.6516 13.2397V10.331C27.6516 9.6367 27.4361 9.11001 27.0052 8.75091C26.5743 8.37984 25.88 8.1943 24.9224 8.1943C24.6591 8.1943 24.3059 8.21225 23.8631 8.24816C23.4202 8.28407 22.9354 8.33794 22.4087 8.40976L22.1573 6.25514C22.6601 6.13544 23.1688 6.0337 23.6835 5.9499C24.2102 5.86611 24.7189 5.82422 25.2097 5.82422C26.2152 5.82422 27.107 6.00975 27.885 6.38083C28.6631 6.73993 29.2735 7.25465 29.7164 7.92497C30.1713 8.58333 30.3987 9.38532 30.3987 10.331V14.8557H20.9543ZM20.9543 14.8557C20.8945 14.8557 20.8406 14.8317 20.7927 14.7838C20.7448 14.724 20.7089 14.6462 20.685 14.5504C20.6611 14.4427 20.6431 14.317 20.6311 14.1734C20.6072 14.0178 20.5952 13.8502 20.5952 13.6706C20.5952 13.4312 20.6072 13.2277 20.6311 13.0601C20.6551 12.8806 20.697 12.7429 20.7568 12.6472C20.8047 12.5514 20.8705 12.5035 20.9543 12.5035V14.8557ZM24.294 18.8776V16.6871H27.0591V18.8776H24.294Z" fill="black"/>
<path d="M18.6199 14.8566V12.5045H20.954V14.8566H18.6199ZM20.954 14.8566V12.5045C21.0259 12.5045 21.0797 12.5344 21.1156 12.5943C21.1635 12.6422 21.1994 12.72 21.2234 12.8277C21.2593 12.9235 21.2832 13.0432 21.2952 13.1868C21.3072 13.3305 21.3131 13.4921 21.3131 13.6716C21.3131 13.8512 21.3072 14.0187 21.2952 14.1743C21.2832 14.318 21.2593 14.4437 21.2234 14.5514C21.1994 14.6472 21.1635 14.725 21.1156 14.7848C21.0797 14.8327 21.0259 14.8566 20.954 14.8566ZM12.7126 14.8566C12.6408 14.8566 12.5869 14.8327 12.551 14.7848C12.5031 14.725 12.4672 14.6472 12.4433 14.5514C12.4194 14.4437 12.4014 14.318 12.3894 14.1743C12.3655 14.0187 12.3535 13.8512 12.3535 13.6716C12.3535 13.4322 12.3655 13.2287 12.3894 13.0611C12.4134 12.8816 12.4553 12.7439 12.5151 12.6482C12.563 12.5524 12.6288 12.5045 12.7126 12.5045V14.8566ZM12.7126 14.8566V12.5045H17.5426L15.8727 13.8871V5.8252H18.6199V14.8566H12.7126ZM14.1849 4.15537V1.96484H16.8064V4.15537H14.1849ZM17.7221 4.15537V1.96484H20.3436V4.15537H17.7221Z" fill="black"/>
<path d="M10.827 14.8568V12.5047H12.7122V14.8568H10.827ZM5.54814 19.3097C4.4828 19.3097 3.53118 19.1122 2.69327 18.7172C1.85537 18.3342 1.19701 17.8015 0.718206 17.1192C0.239402 16.4369 0 15.6588 0 14.785C0 14.5456 0.0179551 14.2344 0.0538654 13.8514C0.0897757 13.4563 0.137656 13.0194 0.197507 12.5406C0.257357 12.0618 0.323193 11.5711 0.395013 11.0683C0.478804 10.5536 0.55661 10.0568 0.62843 9.57803L3.33966 9.93714C3.21996 10.7391 3.11223 11.4693 3.01647 12.1277C2.93267 12.774 2.86684 13.3247 2.81896 13.7795C2.77108 14.2224 2.74714 14.5516 2.74714 14.7671C2.74714 15.21 2.85487 15.593 3.07033 15.9162C3.28579 16.2514 3.603 16.5087 4.02195 16.6883C4.44091 16.8678 4.94964 16.9576 5.54814 16.9576C6.18256 16.9576 6.6853 16.8618 7.05638 16.6703C7.42745 16.4908 7.69079 16.2454 7.8464 15.9342C8.00201 15.6349 8.07982 15.2938 8.07982 14.9107V2.23438H10.827V14.9107C10.827 15.7965 10.5995 16.5686 10.1447 17.2269C9.6898 17.8853 9.06137 18.394 8.25937 18.7531C7.46934 19.1242 6.5656 19.3097 5.54814 19.3097ZM12.7122 14.8568V12.5047C12.7721 12.5047 12.826 12.5346 12.8738 12.5945C12.9217 12.6424 12.9576 12.7202 12.9816 12.8279C13.0055 12.9237 13.0235 13.0434 13.0354 13.187C13.0594 13.3307 13.0714 13.4923 13.0714 13.6718C13.0714 13.8514 13.0594 14.0189 13.0354 14.1746C13.0235 14.3182 13.0055 14.4439 12.9816 14.5516C12.9576 14.6474 12.9217 14.7252 12.8738 14.785C12.826 14.8329 12.7721 14.8568 12.7122 14.8568Z" fill="black"/>
<path d="M89.8975 14.6291H93.6144C93.9816 15.5061 94.2048 16.3799 94.6758 17.0926C95.5574 18.4313 97.2927 18.9953 98.7661 18.5894C100.469 18.1183 101.687 16.7859 101.741 15.0784C101.818 12.6087 101.842 10.1313 101.746 7.66309C101.66 5.46297 99.8027 3.87949 97.6382 3.96006C95.531 4.03908 93.8809 5.77439 93.8546 7.96057C93.8391 9.25431 93.8515 10.5496 93.8515 11.8449C93.8515 12.0324 93.8515 12.2214 93.8515 12.4429H89.9966C89.961 12.3996 89.9161 12.3686 89.9176 12.3407C89.9765 10.0352 89.5798 7.70493 90.3003 5.43663C92.0108 0.0463171 98.9118 -1.79745 103.101 2.02178C104.852 3.61765 105.737 5.60706 105.741 7.97762C105.746 10.2583 105.746 12.5375 105.741 14.8181C105.734 19.0712 102.231 22.5976 97.9589 22.6549C93.6206 22.7138 90.0292 19.3238 89.8975 15.0459C89.8944 14.9328 89.8975 14.8181 89.8975 14.6291Z" fill="#FFD734"/>
<path d="M99.9964 7.99417C100.001 9.20579 99.0095 10.2113 97.7932 10.2253C96.5707 10.2392 95.5714 9.26157 95.5559 8.03601C95.5388 6.76706 96.5103 5.78475 97.7793 5.7832C99.0002 5.7832 99.9902 6.77016 99.9964 7.99417Z" fill="#FFD734"/>
</svg>
